# xmcd CD database file
#
# Track frame offsets:
#	150
#	18306
#	31287
#	52305
#	65623
#	88001
#	100361
#	127687
#	138411
#	152066
#	165872
#	187671
#	219310
#
# Disc length: 3086 seconds
#
# Revision: 0
# Processed by: cddbd v1.5.2PL0 Copyright (c) Steve Scherf et al.
# Submitted via: CDex 1.70beta2
#
DISCID=a30c0c0d
DTITLE=Kevin Texas Band - Emotion Blues
DYEAR=2005
DGENRE=Blues
TTITLE0=Blues man
TTITLE1=Lip's boogie
TTITLE2=Same old blues
TTITLE3=Perpetual blues machine
TTITLE4=Dawn right I've got the blues
TTITLE5=Move
TTITLE6=Fade game
TTITLE7=I have had enough
TTITLE8=Boogie thing
TTITLE9=Too tired
TTITLE10=Walking blues
TTITLE11=Texas flood
TTITLE12=Deepest despair blues
EXTD=YEAR: 2005
EXTT0=
EXTT1=
EXTT2=
EXTT3=
EXTT4=
EXTT5=
EXTT6=
EXTT7=
EXTT8=
EXTT9=
EXTT10=
EXTT11=
EXTT12=
PLAYORDER=
